STARTFONT   2.1
COMMENT
COMMENT Copyright: "Leon Marrick, 2005.  Freeware.  Share and enjoy!"
COMMENT
FONT -angband-8x12x-light-r-normal--12-90-96-96-c-80-iso8859-1
SIZE  9  96   96
FONTBOUNDINGBOX 8  12  0  -3
STARTPROPERTIES  4
FONT_ASCENT 9
FONT_DESCENT 3
CAP_HEIGHT 9
DEFAULT_CHAR 8223
ENDPROPERTIES
CHARS  256
STARTCHAR 0  
ENCODING 0
SWIDTH    8000    0 
DWIDTH    8    0 
BBX  8  12  0   -3
BITMAP
00
00
00
00
00
00
00
00
00
00
00
00
ENDCHAR
STARTCHAR 1  
ENCODING 1
SWIDTH    8000    0 
DWIDTH    8    0 
BBX  8  12  0   -3
BITMAP
FF
FF
FF
FF
FF
FF
FF
FF
FF
FF
FF
FF
ENDCHAR
STARTCHAR 2  
ENCODING 2
SWIDTH    8000    0 
DWIDTH    8    0 
BBX  8  12  0   -3
BITMAP
EE
BF
F7
7D
EF
BB
FE
DF
F7
7D
DF
FB
ENDCHAR
STARTCHAR 3  
ENCODING 3
SWIDTH    8000    0 
DWIDTH    8    0 
BBX  8  12  0   -3
BITMAP
55
FA
A5
7F
EB
55
EE
55
FA
A5
7F
55
ENDCHAR
STARTCHAR 4  
ENCODING 4
SWIDTH    8000    0 
DWIDTH    8    0 
BBX  8  12  0   -3
BITMAP
11
40
08
82
10
44
01
20
08
82
20
04
ENDCHAR
STARTCHAR 5  
ENCODING 5
SWIDTH    8000    0 
DWIDTH    8    0 
BBX  8  12  0   -3
BITMAP
02
20
00
04
80
10
00
02
20
00
88
00
ENDCHAR
STARTCHAR 6  
ENCODING 6
SWIDTH    8000    0 
DWIDTH    8    0 
BBX  8  12  0   -3
BITMAP
00
02
00
20
00
00
00
04
00
00
40
00
ENDCHAR
STARTCHAR 7  
ENCODING 7
SWIDTH    8000    0 
DWIDTH    8    0 
BBX  8  12  0   -3
BITMAP
00
00
00
00
00
00
10
00
00
00
00
00
ENDCHAR
STARTCHAR 8  
ENCODING 8
SWIDTH    8000    0 
DWIDTH    8    0 
BBX  8  12  0   -3
BITMAP
00
00
00
00
00
18
18
00
00
00
00
00
ENDCHAR
STARTCHAR 9  
ENCODING 9
SWIDTH    8000    0 
DWIDTH    8    0 
BBX  8  12  0   -3
BITMAP
00
00
00
38
7C
7C
7C
38
00
00
00
00
ENDCHAR
STARTCHAR 10  
ENCODING 10
SWIDTH    8000    0 
DWIDTH    8    0 
BBX  8  12  0   -3
BITMAP
00
00
00
3C
7E
7E
7E
7E
3C
00
00
00
ENDCHAR
STARTCHAR 11  
ENCODING 11
SWIDTH    8000    0 
DWIDTH    8    0 
BBX  8  12  0   -3
BITMAP
00
00
00
00
00
36
7B
D5
AB
7F
00
00
ENDCHAR
STARTCHAR 12  
ENCODING 12
SWIDTH    8000    0 
DWIDTH    8    0 
BBX  8  12  0   -3
BITMAP
00
00
00
00
7E
AB
56
2C
18
00
00
00
ENDCHAR
STARTCHAR 13  
ENCODING 13
SWIDTH    8000    0 
DWIDTH    8    0 
BBX  8  12  0   -3
BITMAP
3C
7E
D5
AB
D5
AB
D5
FF
AB
D5
AB
D5
ENDCHAR
STARTCHAR 14  
ENCODING 14
SWIDTH    8000    0 
DWIDTH    8    0 
BBX  8  12  0   -3
BITMAP
3C
42
81
81
81
81
81
81
81
81
81
FF
ENDCHAR
STARTCHAR 15  
ENCODING 15
SWIDTH    8000    0 
DWIDTH    8    0 
BBX  8  12  0   -3
BITMAP
18
42
81
00
81
00
81
00
81
00
81
DB
ENDCHAR
STARTCHAR 16  
ENCODING 16
SWIDTH    8000    0 
DWIDTH    8    0 
BBX  8  12  0   -3
BITMAP
00
C6
7C
18
28
18
18
28
5C
6C
38
00
ENDCHAR
STARTCHAR 17  
ENCODING 17
SWIDTH    8000    0 
DWIDTH    8    0 
BBX  8  12  0   -3
BITMAP
00
00
00
0A
14
00
00
00
28
50
00
00
ENDCHAR
STARTCHAR 18  
ENCODING 18
SWIDTH    8000    0 
DWIDTH    8    0 
BBX  8  12  0   -3
BITMAP
00
00
38
54
6C
54
38
10
10
10
00
00
ENDCHAR
STARTCHAR 19  
ENCODING 19
SWIDTH    8000    0 
DWIDTH    8    0 
BBX  8  12  0   -3
BITMAP
00
00
00
10
14
44
54
3A
52
FE
BA
00
ENDCHAR
STARTCHAR 20  
ENCODING 20
SWIDTH    8000    0 
DWIDTH    8    0 
BBX  8  12  0   -3
BITMAP
00
00
10
44
00
82
00
82
00
44
10
00
ENDCHAR
STARTCHAR 21  
ENCODING 21
SWIDTH    8000    0 
DWIDTH    8    0 
BBX  8  12  0   -3
BITMAP
00
00
00
00
00
00
00
00
00
00
00
00
ENDCHAR
STARTCHAR 22  
ENCODING 22
SWIDTH    8000    0 
DWIDTH    8    0 
BBX  8  12  0   -3
BITMAP
00
00
00
00
00
00
00
00
00
00
00
00
ENDCHAR
STARTCHAR 23  
ENCODING 23
SWIDTH    8000    0 
DWIDTH    8    0 
BBX  8  12  0   -3
BITMAP
00
00
00
00
00
00
00
00
00
00
00
00
ENDCHAR
STARTCHAR 24  
ENCODING 24
SWIDTH    8000    0 
DWIDTH    8    0 
BBX  8  12  0   -3
BITMAP
00
00
00
00
00
00
00
00
00
00
00
00
ENDCHAR
STARTCHAR 25  
ENCODING 25
SWIDTH    8000    0 
DWIDTH    8    0 
BBX  8  12  0   -3
BITMAP
00
00
00
00
00
00
00
00
00
00
00
00
ENDCHAR
STARTCHAR 26  
ENCODING 26
SWIDTH    8000    0 
DWIDTH    8    0 
BBX  8  12  0   -3
BITMAP
00
00
00
00
00
00
00
00
00
00
00
00
ENDCHAR
STARTCHAR 27  
ENCODING 27
SWIDTH    8000    0 
DWIDTH    8    0 
BBX  8  12  0   -3
BITMAP
00
00
00
00
00
00
00
00
00
00
00
00
ENDCHAR
STARTCHAR 28  
ENCODING 28
SWIDTH    8000    0 
DWIDTH    8    0 
BBX  8  12  0   -3
BITMAP
00
00
00
00
00
00
00
00
00
00
00
00
ENDCHAR
STARTCHAR 29  
ENCODING 29
SWIDTH    8000    0 
DWIDTH    8    0 
BBX  8  12  0   -3
BITMAP
00
00
00
00
00
00
00
00
00
00
00
00
ENDCHAR
STARTCHAR 30  
ENCODING 30
SWIDTH    8000    0 
DWIDTH    8    0 
BBX  8  12  0   -3
BITMAP
00
00
00
00
00
00
00
00
00
00
00
00
ENDCHAR
STARTCHAR 31  
ENCODING 31
SWIDTH    8000    0 
DWIDTH    8    0 
BBX  8  12  0   -3
BITMAP
00
00
00
00
00
00
00
00
00
00
00
00
ENDCHAR
STARTCHAR 32  
ENCODING 32
SWIDTH    8000    0 
DWIDTH    8    0 
BBX  8  12  0   -3
BITMAP
00
00
00
00
00
00
00
00
00
00
00
00
ENDCHAR
STARTCHAR 33  
ENCODING 33
SWIDTH    8000    0 
DWIDTH    8    0 
BBX  8  12  0   -3
BITMAP
00
10
10
10
10
10
10
10
00
10
00
00
ENDCHAR
STARTCHAR 34  
ENCODING 34
SWIDTH    8000    0 
DWIDTH    8    0 
BBX  8  12  0   -3
BITMAP
00
28
28
28
00
00
00
00
00
00
00
00
ENDCHAR
STARTCHAR 35  
ENCODING 35
SWIDTH    8000    0 
DWIDTH    8    0 
BBX  8  12  0   -3
BITMAP
00
00
24
24
7E
24
24
7E
24
24
00
00
ENDCHAR
STARTCHAR 36  
ENCODING 36
SWIDTH    8000    0 
DWIDTH    8    0 
BBX  8  12  0   -3
BITMAP
00
10
38
54
50
38
14
54
38
10
00
00
ENDCHAR
STARTCHAR 37  
ENCODING 37
SWIDTH    8000    0 
DWIDTH    8    0 
BBX  8  12  0   -3
BITMAP
00
00
22
52
24
08
10
24
4A
44
00
00
ENDCHAR
STARTCHAR 38  
ENCODING 38
SWIDTH    8000    0 
DWIDTH    8    0 
BBX  8  12  0   -3
BITMAP
00
00
30
48
48
30
50
4A
4C
36
00
00
ENDCHAR
STARTCHAR 39  
ENCODING 39
SWIDTH    8000    0 
DWIDTH    8    0 
BBX  8  12  0   -3
BITMAP
00
30
10
20
00
00
00
00
00
00
00
00
ENDCHAR
STARTCHAR 40  
ENCODING 40
SWIDTH    8000    0 
DWIDTH    8    0 
BBX  8  12  0   -3
BITMAP
00
08
10
10
20
20
20
20
10
10
08
00
ENDCHAR
STARTCHAR 41  
ENCODING 41
SWIDTH    8000    0 
DWIDTH    8    0 
BBX  8  12  0   -3
BITMAP
00
20
10
10
08
08
08
08
10
10
20
00
ENDCHAR
STARTCHAR 42  
ENCODING 42
SWIDTH    8000    0 
DWIDTH    8    0 
BBX  8  12  0   -3
BITMAP
00
00
00
6C
38
D6
38
6C
00
00
00
00
ENDCHAR
STARTCHAR 43  
ENCODING 43
SWIDTH    8000    0 
DWIDTH    8    0 
BBX  8  12  0   -3
BITMAP
00
00
10
10
10
7C
10
10
10
00
00
00
ENDCHAR
STARTCHAR 44  
ENCODING 44
SWIDTH    8000    0 
DWIDTH    8    0 
BBX  8  12  0   -3
BITMAP
00
00
00
00
00
00
00
00
30
10
20
00
ENDCHAR
STARTCHAR 45  
ENCODING 45
SWIDTH    8000    0 
DWIDTH    8    0 
BBX  8  12  0   -3
BITMAP
00
00
00
00
00
7E
00
00
00
00
00
00
ENDCHAR
STARTCHAR 46  
ENCODING 46
SWIDTH    8000    0 
DWIDTH    8    0 
BBX  8  12  0   -3
BITMAP
00
00
00
00
00
00
00
00
30
00
00
00
ENDCHAR
STARTCHAR 47  
ENCODING 47
SWIDTH    8000    0 
DWIDTH    8    0 
BBX  8  12  0   -3
BITMAP
00
02
02
04
08
10
20
40
80
80
00
00
ENDCHAR
STARTCHAR 48  
ENCODING 48
SWIDTH    8000    0 
DWIDTH    8    0 
BBX  8  12  0   -3
BITMAP
00
3C
42
42
42
42
42
42
42
3C
00
00
ENDCHAR
STARTCHAR 49  
ENCODING 49
SWIDTH    8000    0 
DWIDTH    8    0 
BBX  8  12  0   -3
BITMAP
00
10
30
10
10
10
10
10
10
7C
00
00
ENDCHAR
STARTCHAR 50  
ENCODING 50
SWIDTH    8000    0 
DWIDTH    8    0 
BBX  8  12  0   -3
BITMAP
00
3C
42
42
02
04
18
20
40
7E
00
00
ENDCHAR
STARTCHAR 51  
ENCODING 51
SWIDTH    8000    0 
DWIDTH    8    0 
BBX  8  12  0   -3
BITMAP
00
3C
42
02
02
1C
02
02
42
3C
00
00
ENDCHAR
STARTCHAR 52  
ENCODING 52
SWIDTH    8000    0 
DWIDTH    8    0 
BBX  8  12  0   -3
BITMAP
00
04
0C
14
24
44
44
7E
04
04
00
00
ENDCHAR
STARTCHAR 53  
ENCODING 53
SWIDTH    8000    0 
DWIDTH    8    0 
BBX  8  12  0   -3
BITMAP
00
7E
40
40
5C
62
02
02
42
3C
00
00
ENDCHAR
STARTCHAR 54  
ENCODING 54
SWIDTH    8000    0 
DWIDTH    8    0 
BBX  8  12  0   -3
BITMAP
00
1C
22
40
40
5C
62
42
42
3C
00
00
ENDCHAR
STARTCHAR 55  
ENCODING 55
SWIDTH    8000    0 
DWIDTH    8    0 
BBX  8  12  0   -3
BITMAP
00
7E
02
04
08
08
10
10
20
20
00
00
ENDCHAR
STARTCHAR 56  
ENCODING 56
SWIDTH    8000    0 
DWIDTH    8    0 
BBX  8  12  0   -3
BITMAP
00
3C
42
42
42
3C
42
42
42
3C
00
00
ENDCHAR
STARTCHAR 57  
ENCODING 57
SWIDTH    8000    0 
DWIDTH    8    0 
BBX  8  12  0   -3
BITMAP
00
3C
42
42
46
3A
02
02
44
38
00
00
ENDCHAR
STARTCHAR 58  
ENCODING 58
SWIDTH    8000    0 
DWIDTH    8    0 
BBX  8  12  0   -3
BITMAP
00
00
00
00
10
10
00
00
10
10
00
00
ENDCHAR
STARTCHAR 59  
ENCODING 59
SWIDTH    8000    0 
DWIDTH    8    0 
BBX  8  12  0   -3
BITMAP
00
00
00
00
00
30
00
00
30
10
20
00
ENDCHAR
STARTCHAR 60  
ENCODING 60
SWIDTH    8000    0 
DWIDTH    8    0 
BBX  8  12  0   -3
BITMAP
00
00
04
08
10
20
10
08
04
00
00
00
ENDCHAR
STARTCHAR 61  
ENCODING 61
SWIDTH    8000    0 
DWIDTH    8    0 
BBX  8  12  0   -3
BITMAP
00
00
00
00
7E
00
7E
00
00
00
00
00
ENDCHAR
STARTCHAR 62  
ENCODING 62
SWIDTH    8000    0 
DWIDTH    8    0 
BBX  8  12  0   -3
BITMAP
00
00
20
10
08
04
08
10
20
00
00
00
ENDCHAR
STARTCHAR 63  
ENCODING 63
SWIDTH    8000    0 
DWIDTH    8    0 
BBX  8  12  0   -3
BITMAP
00
00
3C
42
42
04
08
08
00
08
00
00
ENDCHAR
STARTCHAR 64  
ENCODING 64
SWIDTH    8000    0 
DWIDTH    8    0 
BBX  8  12  0   -3
BITMAP
00
00
38
44
9A
AA
AA
9C
40
3C
00
00
ENDCHAR
STARTCHAR 65  
ENCODING 65
SWIDTH    8000    0 
DWIDTH    8    0 
BBX  8  12  0   -3
BITMAP
00
18
24
42
42
42
7E
42
42
42
00
00
ENDCHAR
STARTCHAR 66  
ENCODING 66
SWIDTH    8000    0 
DWIDTH    8    0 
BBX  8  12  0   -3
BITMAP
00
7C
42
42
42
7C
42
42
42
7C
00
00
ENDCHAR
STARTCHAR 67  
ENCODING 67
SWIDTH    8000    0 
DWIDTH    8    0 
BBX  8  12  0   -3
BITMAP
00
1C
22
40
40
40
40
40
22
1C
00
00
ENDCHAR
STARTCHAR 68  
ENCODING 68
SWIDTH    8000    0 
DWIDTH    8    0 
BBX  8  12  0   -3
BITMAP
00
78
44
42
42
42
42
42
44
78
00
00
ENDCHAR
STARTCHAR 69  
ENCODING 69
SWIDTH    8000    0 
DWIDTH    8    0 
BBX  8  12  0   -3
BITMAP
00
7E
40
40
40
78
40
40
40
7E
00
00
ENDCHAR
STARTCHAR 70  
ENCODING 70
SWIDTH    8000    0 
DWIDTH    8    0 
BBX  8  12  0   -3
BITMAP
00
7E
40
40
40
78
40
40
40
40
00
00
ENDCHAR
STARTCHAR 71  
ENCODING 71
SWIDTH    8000    0 
DWIDTH    8    0 
BBX  8  12  0   -3
BITMAP
00
1C
22
40
40
40
4E
42
26
1A
00
00
ENDCHAR
STARTCHAR 72  
ENCODING 72
SWIDTH    8000    0 
DWIDTH    8    0 
BBX  8  12  0   -3
BITMAP
00
42
42
42
42
7E
42
42
42
42
00
00
ENDCHAR
STARTCHAR 73  
ENCODING 73
SWIDTH    8000    0 
DWIDTH    8    0 
BBX  8  12  0   -3
BITMAP
00
38
10
10
10
10
10
10
10
38
00
00
ENDCHAR
STARTCHAR 74  
ENCODING 74
SWIDTH    8000    0 
DWIDTH    8    0 
BBX  8  12  0   -3
BITMAP
00
0E
04
04
04
04
04
04
44
38
00
00
ENDCHAR
STARTCHAR 75  
ENCODING 75
SWIDTH    8000    0 
DWIDTH    8    0 
BBX  8  12  0   -3
BITMAP
00
42
44
48
50
60
50
48
44
42
00
00
ENDCHAR
STARTCHAR 76  
ENCODING 76
SWIDTH    8000    0 
DWIDTH    8    0 
BBX  8  12  0   -3
BITMAP
00
40
40
40
40
40
40
40
40
7E
00
00
ENDCHAR
STARTCHAR 77  
ENCODING 77
SWIDTH    8000    0 
DWIDTH    8    0 
BBX  8  12  0   -3
BITMAP
00
82
C6
AA
92
82
82
82
82
82
00
00
ENDCHAR
STARTCHAR 78  
ENCODING 78
SWIDTH    8000    0 
DWIDTH    8    0 
BBX  8  12  0   -3
BITMAP
00
42
42
62
52
4A
46
42
42
42
00
00
ENDCHAR
STARTCHAR 79  
ENCODING 79
SWIDTH    8000    0 
DWIDTH    8    0 
BBX  8  12  0   -3
BITMAP
00
18
24
42
42
42
42
42
24
18
00
00
ENDCHAR
STARTCHAR 80  
ENCODING 80
SWIDTH    8000    0 
DWIDTH    8    0 
BBX  8  12  0   -3
BITMAP
00
7C
42
42
42
7C
40
40
40
40
00
00
ENDCHAR
STARTCHAR 81  
ENCODING 81
SWIDTH    8000    0 
DWIDTH    8    0 
BBX  8  12  0   -3
BITMAP
00
18
24
42
42
42
42
4A
24
1A
00
00
ENDCHAR
STARTCHAR 82  
ENCODING 82
SWIDTH    8000    0 
DWIDTH    8    0 
BBX  8  12  0   -3
BITMAP
00
7C
42
42
42
7C
50
48
44
42
00
00
ENDCHAR
STARTCHAR 83  
ENCODING 83
SWIDTH    8000    0 
DWIDTH    8    0 
BBX  8  12  0   -3
BITMAP
00
3C
42
40
40
3C
02
02
42
3C
00
00
ENDCHAR
STARTCHAR 84  
ENCODING 84
SWIDTH    8000    0 
DWIDTH    8    0 
BBX  8  12  0   -3
BITMAP
00
FE
10
10
10
10
10
10
10
10
00
00
ENDCHAR
STARTCHAR 85  
ENCODING 85
SWIDTH    8000    0 
DWIDTH    8    0 
BBX  8  12  0   -3
BITMAP
00
42
42
42
42
42
42
42
42
3C
00
00
ENDCHAR
STARTCHAR 86  
ENCODING 86
SWIDTH    8000    0 
DWIDTH    8    0 
BBX  8  12  0   -3
BITMAP
00
82
82
44
44
44
28
28
10
10
00
00
ENDCHAR
STARTCHAR 87  
ENCODING 87
SWIDTH    8000    0 
DWIDTH    8    0 
BBX  8  12  0   -3
BITMAP
00
82
82
82
82
82
92
AA
C6
82
00
00
ENDCHAR
STARTCHAR 88  
ENCODING 88
SWIDTH    8000    0 
DWIDTH    8    0 
BBX  8  12  0   -3
BITMAP
00
82
82
44
28
10
28
44
82
82
00
00
ENDCHAR
STARTCHAR 89  
ENCODING 89
SWIDTH    8000    0 
DWIDTH    8    0 
BBX  8  12  0   -3
BITMAP
00
82
82
44
28
10
10
10
10
10
00
00
ENDCHAR
STARTCHAR 90  
ENCODING 90
SWIDTH    8000    0 
DWIDTH    8    0 
BBX  8  12  0   -3
BITMAP
00
7E
02
04
08
10
20
40
40
7E
00
00
ENDCHAR
STARTCHAR 91  
ENCODING 91
SWIDTH    8000    0 
DWIDTH    8    0 
BBX  8  12  0   -3
BITMAP
00
38
20
20
20
20
20
20
20
38
00
00
ENDCHAR
STARTCHAR 92  
ENCODING 92
SWIDTH    8000    0 
DWIDTH    8    0 
BBX  8  12  0   -3
BITMAP
00
80
80
40
20
10
08
04
02
02
00
00
ENDCHAR
STARTCHAR 93  
ENCODING 93
SWIDTH    8000    0 
DWIDTH    8    0 
BBX  8  12  0   -3
BITMAP
00
38
08
08
08
08
08
08
08
38
00
00
ENDCHAR
STARTCHAR 94  
ENCODING 94
SWIDTH    8000    0 
DWIDTH    8    0 
BBX  8  12  0   -3
BITMAP
00
00
10
28
44
00
00
00
00
00
00
00
ENDCHAR
STARTCHAR 95  
ENCODING 95
SWIDTH    8000    0 
DWIDTH    8    0 
BBX  8  12  0   -3
BITMAP
00
00
00
00
00
00
00
00
00
FF
00
00
ENDCHAR
STARTCHAR 96  
ENCODING 96
SWIDTH    8000    0 
DWIDTH    8    0 
BBX  8  12  0   -3
BITMAP
00
30
20
10
00
00
00
00
00
00
00
00
ENDCHAR
STARTCHAR 97  
ENCODING 97
SWIDTH    8000    0 
DWIDTH    8    0 
BBX  8  12  0   -3
BITMAP
00
00
00
00
3C
02
3E
42
46
3A
00
00
ENDCHAR
STARTCHAR 98  
ENCODING 98
SWIDTH    8000    0 
DWIDTH    8    0 
BBX  8  12  0   -3
BITMAP
00
40
40
40
5C
62
42
42
62
5C
00
00
ENDCHAR
STARTCHAR 99  
ENCODING 99
SWIDTH    8000    0 
DWIDTH    8    0 
BBX  8  12  0   -3
BITMAP
00
00
00
00
3C
42
40
40
42
3C
00
00
ENDCHAR
STARTCHAR 100  
ENCODING 100
SWIDTH    8000    0 
DWIDTH    8    0 
BBX  8  12  0   -3
BITMAP
00
02
02
02
3A
46
42
42
46
3A
00
00
ENDCHAR
STARTCHAR 101  
ENCODING 101
SWIDTH    8000    0 
DWIDTH    8    0 
BBX  8  12  0   -3
BITMAP
00
00
00
00
3C
42
7E
40
40
3C
00
00
ENDCHAR
STARTCHAR 102  
ENCODING 102
SWIDTH    8000    0 
DWIDTH    8    0 
BBX  8  12  0   -3
BITMAP
00
1C
22
20
20
7C
20
20
20
20
00
00
ENDCHAR
STARTCHAR 103  
ENCODING 103
SWIDTH    8000    0 
DWIDTH    8    0 
BBX  8  12  0   -3
BITMAP
00
00
00
00
3A
46
42
46
3A
02
42
3C
ENDCHAR
STARTCHAR 104  
ENCODING 104
SWIDTH    8000    0 
DWIDTH    8    0 
BBX  8  12  0   -3
BITMAP
00
40
40
40
5C
62
42
42
42
42
00
00
ENDCHAR
STARTCHAR 105  
ENCODING 105
SWIDTH    8000    0 
DWIDTH    8    0 
BBX  8  12  0   -3
BITMAP
00
00
10
00
30
10
10
10
10
3C
00
00
ENDCHAR
STARTCHAR 106  
ENCODING 106
SWIDTH    8000    0 
DWIDTH    8    0 
BBX  8  12  0   -3
BITMAP
00
00
04
00
0C
04
04
04
04
04
44
38
ENDCHAR
STARTCHAR 107  
ENCODING 107
SWIDTH    8000    0 
DWIDTH    8    0 
BBX  8  12  0   -3
BITMAP
00
40
40
40
44
48
70
48
44
42
00
00
ENDCHAR
STARTCHAR 108  
ENCODING 108
SWIDTH    8000    0 
DWIDTH    8    0 
BBX  8  12  0   -3
BITMAP
00
30
10
10
10
10
10
10
10
3C
00
00
ENDCHAR
STARTCHAR 109  
ENCODING 109
SWIDTH    8000    0 
DWIDTH    8    0 
BBX  8  12  0   -3
BITMAP
00
00
00
00
EC
92
92
92
92
92
00
00
ENDCHAR
STARTCHAR 110  
ENCODING 110
SWIDTH    8000    0 
DWIDTH    8    0 
BBX  8  12  0   -3
BITMAP
00
00
00
00
5C
62
42
42
42
42
00
00
ENDCHAR
STARTCHAR 111  
ENCODING 111
SWIDTH    8000    0 
DWIDTH    8    0 
BBX  8  12  0   -3
BITMAP
00
00
00
00
3C
42
42
42
42
3C
00
00
ENDCHAR
STARTCHAR 112  
ENCODING 112
SWIDTH    8000    0 
DWIDTH    8    0 
BBX  8  12  0   -3
BITMAP
00
00
00
00
5C
62
42
62
5C
40
40
40
ENDCHAR
STARTCHAR 113  
ENCODING 113
SWIDTH    8000    0 
DWIDTH    8    0 
BBX  8  12  0   -3
BITMAP
00
00
00
00
3A
46
42
46
3A
02
02
02
ENDCHAR
STARTCHAR 114  
ENCODING 114
SWIDTH    8000    0 
DWIDTH    8    0 
BBX  8  12  0   -3
BITMAP
00
00
00
00
5C
22
20
20
20
20
00
00
ENDCHAR
STARTCHAR 115  
ENCODING 115
SWIDTH    8000    0 
DWIDTH    8    0 
BBX  8  12  0   -3
BITMAP
00
00
00
00
3C
42
30
0C
42
3C
00
00
ENDCHAR
STARTCHAR 116  
ENCODING 116
SWIDTH    8000    0 
DWIDTH    8    0 
BBX  8  12  0   -3
BITMAP
00
00
10
10
3C
10
10
10
10
0C
00
00
ENDCHAR
STARTCHAR 117  
ENCODING 117
SWIDTH    8000    0 
DWIDTH    8    0 
BBX  8  12  0   -3
BITMAP
00
00
00
00
44
44
44
44
44
3A
00
00
ENDCHAR
STARTCHAR 118  
ENCODING 118
SWIDTH    8000    0 
DWIDTH    8    0 
BBX  8  12  0   -3
BITMAP
00
00
00
00
44
44
44
28
28
10
00
00
ENDCHAR
STARTCHAR 119  
ENCODING 119
SWIDTH    8000    0 
DWIDTH    8    0 
BBX  8  12  0   -3
BITMAP
00
00
00
00
82
82
92
92
AA
44
00
00
ENDCHAR
STARTCHAR 120  
ENCODING 120
SWIDTH    8000    0 
DWIDTH    8    0 
BBX  8  12  0   -3
BITMAP
00
00
00
00
42
24
18
18
24
42
00
00
ENDCHAR
STARTCHAR 121  
ENCODING 121
SWIDTH    8000    0 
DWIDTH    8    0 
BBX  8  12  0   -3
BITMAP
00
00
00
00
42
42
42
46
3A
02
42
3C
ENDCHAR
STARTCHAR 122  
ENCODING 122
SWIDTH    8000    0 
DWIDTH    8    0 
BBX  8  12  0   -3
BITMAP
00
00
00
00
7E
04
08
10
20
7E
00
00
ENDCHAR
STARTCHAR 123  
ENCODING 123
SWIDTH    8000    0 
DWIDTH    8    0 
BBX  8  12  0   -3
BITMAP
00
08
10
10
10
20
10
10
10
08
00
00
ENDCHAR
STARTCHAR 124  
ENCODING 124
SWIDTH    8000    0 
DWIDTH    8    0 
BBX  8  12  0   -3
BITMAP
00
10
10
10
10
10
10
10
10
10
00
00
ENDCHAR
STARTCHAR 125  
ENCODING 125
SWIDTH    8000    0 
DWIDTH    8    0 
BBX  8  12  0   -3
BITMAP
00
20
10
10
10
08
10
10
10
20
00
00
ENDCHAR
STARTCHAR 126  
ENCODING 126
SWIDTH    8000    0 
DWIDTH    8    0 
BBX  8  12  0   -3
BITMAP
00
00
00
00
00
32
4C
00
00
00
00
00
ENDCHAR
STARTCHAR 127  
ENCODING 127
SWIDTH    8000    0 
DWIDTH    8    0 
BBX  8  12  0   -3
BITMAP
55
AA
55
AA
55
AA
55
AA
55
AA
55
AA
ENDCHAR
STARTCHAR 128  
ENCODING 128
SWIDTH    8000    0 
DWIDTH    8    0 
BBX  8  12  0   -3
BITMAP
00
00
00
00
00
00
00
00
00
00
00
00
ENDCHAR
STARTCHAR 129  
ENCODING 129
SWIDTH    8000    0 
DWIDTH    8    0 
BBX  8  12  0   -3
BITMAP
00
00
00
00
00
00
00
00
00
00
00
00
ENDCHAR
STARTCHAR 130  
ENCODING 130
SWIDTH    8000    0 
DWIDTH    8    0 
BBX  8  12  0   -3
BITMAP
00
00
00
00
00
00
00
00
00
00
00
00
ENDCHAR
STARTCHAR 131  
ENCODING 131
SWIDTH    8000    0 
DWIDTH    8    0 
BBX  8  12  0   -3
BITMAP
00
00
00
00
00
00
00
00
00
00
00
00
ENDCHAR
STARTCHAR 132  
ENCODING 132
SWIDTH    8000    0 
DWIDTH    8    0 
BBX  8  12  0   -3
BITMAP
00
00
00
00
00
00
00
00
00
00
00
00
ENDCHAR
STARTCHAR 133  
ENCODING 133
SWIDTH    8000    0 
DWIDTH    8    0 
BBX  8  12  0   -3
BITMAP
00
00
00
00
00
00
00
00
00
00
00
00
ENDCHAR
STARTCHAR 134  
ENCODING 134
SWIDTH    8000    0 
DWIDTH    8    0 
BBX  8  12  0   -3
BITMAP
00
00
00
00
00
00
00
00
00
00
00
00
ENDCHAR
STARTCHAR 135  
ENCODING 135
SWIDTH    8000    0 
DWIDTH    8    0 
BBX  8  12  0   -3
BITMAP
00
00
00
00
00
00
00
00
00
00
00
00
ENDCHAR
STARTCHAR 136  
ENCODING 136
SWIDTH    8000    0 
DWIDTH    8    0 
BBX  8  12  0   -3
BITMAP
00
00
00
00
00
00
00
00
00
00
00
00
ENDCHAR
STARTCHAR 137  
ENCODING 137
SWIDTH    8000    0 
DWIDTH    8    0 
BBX  8  12  0   -3
BITMAP
00
00
00
00
00
00
00
00
00
00
00
00
ENDCHAR
STARTCHAR 138  
ENCODING 138
SWIDTH    8000    0 
DWIDTH    8    0 
BBX  8  12  0   -3
BITMAP
00
00
00
00
00
00
00
00
00
00
00
00
ENDCHAR
STARTCHAR 139  
ENCODING 139
SWIDTH    8000    0 
DWIDTH    8    0 
BBX  8  12  0   -3
BITMAP
00
00
00
00
00
00
00
00
00
00
00
00
ENDCHAR
STARTCHAR 140  
ENCODING 140
SWIDTH    8000    0 
DWIDTH    8    0 
BBX  8  12  0   -3
BITMAP
00
00
00
00
00
00
00
00
00
00
00
00
ENDCHAR
STARTCHAR 141  
ENCODING 141
SWIDTH    8000    0 
DWIDTH    8    0 
BBX  8  12  0   -3
BITMAP
00
00
00
00
00
00
00
00
00
00
00
00
ENDCHAR
STARTCHAR 142  
ENCODING 142
SWIDTH    8000    0 
DWIDTH    8    0 
BBX  8  12  0   -3
BITMAP
00
00
00
00
00
00
00
00
00
00
00
00
ENDCHAR
STARTCHAR 143  
ENCODING 143
SWIDTH    8000    0 
DWIDTH    8    0 
BBX  8  12  0   -3
BITMAP
00
00
00
00
00
00
00
00
00
00
00
00
ENDCHAR
STARTCHAR 144  
ENCODING 144
SWIDTH    8000    0 
DWIDTH    8    0 
BBX  8  12  0   -3
BITMAP
00
00
00
00
00
00
00
00
00
00
00
00
ENDCHAR
STARTCHAR 145  
ENCODING 145
SWIDTH    8000    0 
DWIDTH    8    0 
BBX  8  12  0   -3
BITMAP
00
00
00
00
00
00
00
00
00
00
00
00
ENDCHAR
STARTCHAR 146  
ENCODING 146
SWIDTH    8000    0 
DWIDTH    8    0 
BBX  8  12  0   -3
BITMAP
00
00
00
00
00
00
00
00
00
00
00
00
ENDCHAR
STARTCHAR 147  
ENCODING 147
SWIDTH    8000    0 
DWIDTH    8    0 
BBX  8  12  0   -3
BITMAP
00
00
00
00
00
00
00
00
00
00
00
00
ENDCHAR
STARTCHAR 148  
ENCODING 148
SWIDTH    8000    0 
DWIDTH    8    0 
BBX  8  12  0   -3
BITMAP
00
00
00
00
00
00
00
00
00
00
00
00
ENDCHAR
STARTCHAR 149  
ENCODING 149
SWIDTH    8000    0 
DWIDTH    8    0 
BBX  8  12  0   -3
BITMAP
00
00
00
00
00
00
00
00
00
00
00
00
ENDCHAR
STARTCHAR 150  
ENCODING 150
SWIDTH    8000    0 
DWIDTH    8    0 
BBX  8  12  0   -3
BITMAP
00
00
00
00
00
00
00
00
00
00
00
00
ENDCHAR
STARTCHAR 151  
ENCODING 151
SWIDTH    8000    0 
DWIDTH    8    0 
BBX  8  12  0   -3
BITMAP
00
00
00
00
00
00
00
00
00
00
00
00
ENDCHAR
STARTCHAR 152  
ENCODING 152
SWIDTH    8000    0 
DWIDTH    8    0 
BBX  8  12  0   -3
BITMAP
00
00
00
00
00
00
00
00
00
00
00
00
ENDCHAR
STARTCHAR 153  
ENCODING 153
SWIDTH    8000    0 
DWIDTH    8    0 
BBX  8  12  0   -3
BITMAP
00
00
00
00
00
00
00
00
00
00
00
00
ENDCHAR
STARTCHAR 154  
ENCODING 154
SWIDTH    8000    0 
DWIDTH    8    0 
BBX  8  12  0   -3
BITMAP
00
00
00
00
00
00
00
00
00
00
00
00
ENDCHAR
STARTCHAR 155  
ENCODING 155
SWIDTH    8000    0 
DWIDTH    8    0 
BBX  8  12  0   -3
BITMAP
00
00
00
00
00
00
00
00
00
00
00
00
ENDCHAR
STARTCHAR 156  
ENCODING 156
SWIDTH    8000    0 
DWIDTH    8    0 
BBX  8  12  0   -3
BITMAP
00
00
00
00
00
00
00
00
00
00
00
00
ENDCHAR
STARTCHAR 157  
ENCODING 157
SWIDTH    8000    0 
DWIDTH    8    0 
BBX  8  12  0   -3
BITMAP
00
00
00
00
00
00
00
00
00
00
00
00
ENDCHAR
STARTCHAR 158  
ENCODING 158
SWIDTH    8000    0 
DWIDTH    8    0 
BBX  8  12  0   -3
BITMAP
00
00
00
00
00
00
00
00
00
00
00
00
ENDCHAR
STARTCHAR 159  
ENCODING 159
SWIDTH    8000    0 
DWIDTH    8    0 
BBX  8  12  0   -3
BITMAP
00
00
00
00
00
00
00
00
00
00
00
00
ENDCHAR
STARTCHAR 160  
ENCODING 160
SWIDTH    8000    0 
DWIDTH    8    0 
BBX  8  12  0   -3
BITMAP
00
00
00
00
00
00
00
00
00
00
00
00
ENDCHAR
STARTCHAR 161  
ENCODING 161
SWIDTH    8000    0 
DWIDTH    8    0 
BBX  8  12  0   -3
BITMAP
00
00
10
00
10
10
10
10
10
10
00
00
ENDCHAR
STARTCHAR 162  
ENCODING 162
SWIDTH    8000    0 
DWIDTH    8    0 
BBX  8  12  0   -3
BITMAP
00
00
1C
32
78
20
20
78
32
1C
00
00
ENDCHAR
STARTCHAR 163  
ENCODING 163
SWIDTH    8000    0 
DWIDTH    8    0 
BBX  8  12  0   -3
BITMAP
00
00
00
1C
22
20
F8
20
78
A6
40
00
ENDCHAR
STARTCHAR 164  
ENCODING 164
SWIDTH    8000    0 
DWIDTH    8    0 
BBX  8  12  0   -3
BITMAP
00
00
00
24
5A
3C
3C
5A
24
00
00
00
ENDCHAR
STARTCHAR 165  
ENCODING 165
SWIDTH    8000    0 
DWIDTH    8    0 
BBX  8  12  0   -3
BITMAP
00
82
82
44
28
10
7C
10
7C
10
00
00
ENDCHAR
STARTCHAR 166  
ENCODING 166
SWIDTH    8000    0 
DWIDTH    8    0 
BBX  8  12  0   -3
BITMAP
00
00
10
10
10
00
10
10
10
00
00
00
ENDCHAR
STARTCHAR 167  
ENCODING 167
SWIDTH    8000    0 
DWIDTH    8    0 
BBX  8  12  0   -3
BITMAP
00
38
44
40
38
44
38
04
44
38
00
00
ENDCHAR
STARTCHAR 168  
ENCODING 168
SWIDTH    8000    0 
DWIDTH    8    0 
BBX  8  12  0   -3
BITMAP
00
10
10
10
18
58
34
30
10
10
10
00
ENDCHAR
STARTCHAR 169  
ENCODING 169
SWIDTH    8000    0 
DWIDTH    8    0 
BBX  8  12  0   -3
BITMAP
00
00
00
00
10
0C
FF
30
08
00
00
00
ENDCHAR
STARTCHAR 170  
ENCODING 170
SWIDTH    8000    0 
DWIDTH    8    0 
BBX  8  12  0   -3
BITMAP
00
02
04
0C
18
3C
18
30
20
40
00
00
ENDCHAR
STARTCHAR 171  
ENCODING 171
SWIDTH    8000    0 
DWIDTH    8    0 
BBX  8  12  0   -3
BITMAP
00
40
20
30
18
3C
18
0C
04
02
00
00
ENDCHAR
STARTCHAR 172  
ENCODING 172
SWIDTH    8000    0 
DWIDTH    8    0 
BBX  8  12  0   -3
BITMAP
00
28
54
AA
7C
BA
7C
AA
54
28
00
00
ENDCHAR
STARTCHAR 173  
ENCODING 173
SWIDTH    8000    0 
DWIDTH    8    0 
BBX  8  12  0   -3
BITMAP
00
84
48
32
D4
38
28
48
94
12
00
00
ENDCHAR
STARTCHAR 174  
ENCODING 174
SWIDTH    8000    0 
DWIDTH    8    0 
BBX  8  12  0   -3
BITMAP
00
82
54
6C
BA
7C
7C
BA
6C
54
82
00
ENDCHAR
STARTCHAR 175  
ENCODING 175
SWIDTH    8000    0 
DWIDTH    8    0 
BBX  8  12  0   -3
BITMAP
00
00
00
00
00
00
00
00
00
00
00
00
ENDCHAR
STARTCHAR 176  
ENCODING 176
SWIDTH    8000    0 
DWIDTH    8    0 
BBX  8  12  0   -3
BITMAP
00
00
00
00
00
00
00
00
00
00
00
00
ENDCHAR
STARTCHAR 177  
ENCODING 177
SWIDTH    8000    0 
DWIDTH    8    0 
BBX  8  12  0   -3
BITMAP
00
00
00
00
00
00
00
00
00
00
00
00
ENDCHAR
STARTCHAR 178  
ENCODING 178
SWIDTH    8000    0 
DWIDTH    8    0 
BBX  8  12  0   -3
BITMAP
00
00
00
00
00
00
00
00
00
00
00
00
ENDCHAR
STARTCHAR 179  
ENCODING 179
SWIDTH    8000    0 
DWIDTH    8    0 
BBX  8  12  0   -3
BITMAP
00
00
00
00
00
00
00
00
00
00
00
00
ENDCHAR
STARTCHAR 180  
ENCODING 180
SWIDTH    8000    0 
DWIDTH    8    0 
BBX  8  12  0   -3
BITMAP
00
00
00
00
00
00
00
00
00
00
00
00
ENDCHAR
STARTCHAR 181  
ENCODING 181
SWIDTH    8000    0 
DWIDTH    8    0 
BBX  8  12  0   -3
BITMAP
00
00
00
00
00
00
00
00
00
00
00
00
ENDCHAR
STARTCHAR 182  
ENCODING 182
SWIDTH    8000    0 
DWIDTH    8    0 
BBX  8  12  0   -3
BITMAP
00
00
00
00
00
00
00
00
00
00
00
00
ENDCHAR
STARTCHAR 183  
ENCODING 183
SWIDTH    8000    0 
DWIDTH    8    0 
BBX  8  12  0   -3
BITMAP
00
00
00
00
00
00
00
00
00
00
00
00
ENDCHAR
STARTCHAR 184  
ENCODING 184
SWIDTH    8000    0 
DWIDTH    8    0 
BBX  8  12  0   -3
BITMAP
00
00
00
00
00
00
00
00
00
00
00
00
ENDCHAR
STARTCHAR 185  
ENCODING 185
SWIDTH    8000    0 
DWIDTH    8    0 
BBX  8  12  0   -3
BITMAP
00
00
00
00
00
00
00
00
00
00
00
00
ENDCHAR
STARTCHAR 186  
ENCODING 186
SWIDTH    8000    0 
DWIDTH    8    0 
BBX  8  12  0   -3
BITMAP
00
00
00
00
00
00
00
00
00
00
00
00
ENDCHAR
STARTCHAR 187  
ENCODING 187
SWIDTH    8000    0 
DWIDTH    8    0 
BBX  8  12  0   -3
BITMAP
00
00
00
00
00
00
00
00
00
00
00
00
ENDCHAR
STARTCHAR 188  
ENCODING 188
SWIDTH    8000    0 
DWIDTH    8    0 
BBX  8  12  0   -3
BITMAP
00
00
00
00
00
00
00
00
00
00
00
00
ENDCHAR
STARTCHAR 189  
ENCODING 189
SWIDTH    8000    0 
DWIDTH    8    0 
BBX  8  12  0   -3
BITMAP
00
00
00
00
00
00
00
00
00
00
00
00
ENDCHAR
STARTCHAR 190  
ENCODING 190
SWIDTH    8000    0 
DWIDTH    8    0 
BBX  8  12  0   -3
BITMAP
00
00
00
00
00
00
00
00
00
00
00
00
ENDCHAR
STARTCHAR 191  
ENCODING 191
SWIDTH    8000    0 
DWIDTH    8    0 
BBX  8  12  0   -3
BITMAP
00
00
10
00
10
10
20
42
42
3C
00
00
ENDCHAR
STARTCHAR 192  
ENCODING 192
SWIDTH    8000    0 
DWIDTH    8    0 
BBX  8  12  0   -3
BITMAP
10
08
00
18
24
42
42
7E
42
42
00
00
ENDCHAR
STARTCHAR 193  
ENCODING 193
SWIDTH    8000    0 
DWIDTH    8    0 
BBX  8  12  0   -3
BITMAP
08
10
00
18
24
42
42
7E
42
42
00
00
ENDCHAR
STARTCHAR 194  
ENCODING 194
SWIDTH    8000    0 
DWIDTH    8    0 
BBX  8  12  0   -3
BITMAP
18
24
00
18
24
42
42
7E
42
42
00
00
ENDCHAR
STARTCHAR 195  
ENCODING 195
SWIDTH    8000    0 
DWIDTH    8    0 
BBX  8  12  0   -3
BITMAP
14
28
00
18
24
42
42
7E
42
42
00
00
ENDCHAR
STARTCHAR 196  
ENCODING 196
SWIDTH    8000    0 
DWIDTH    8    0 
BBX  8  12  0   -3
BITMAP
00
24
00
18
24
42
42
7E
42
42
00
00
ENDCHAR
STARTCHAR 197  
ENCODING 197
SWIDTH    8000    0 
DWIDTH    8    0 
BBX  8  12  0   -3
BITMAP
24
18
00
18
24
42
42
7E
42
42
00
00
ENDCHAR
STARTCHAR 198  
ENCODING 198
SWIDTH    8000    0 
DWIDTH    8    0 
BBX  8  12  0   -3
BITMAP
00
3E
70
90
90
FE
90
90
90
9E
00
00
ENDCHAR
STARTCHAR 199  
ENCODING 199
SWIDTH    8000    0 
DWIDTH    8    0 
BBX  8  12  0   -3
BITMAP
00
1C
22
40
40
40
40
40
22
1C
08
18
ENDCHAR
STARTCHAR 200  
ENCODING 200
SWIDTH    8000    0 
DWIDTH    8    0 
BBX  8  12  0   -3
BITMAP
10
08
00
7E
40
40
78
40
40
7E
00
00
ENDCHAR
STARTCHAR 201  
ENCODING 201
SWIDTH    8000    0 
DWIDTH    8    0 
BBX  8  12  0   -3
BITMAP
08
10
00
7E
40
40
78
40
40
7E
00
00
ENDCHAR
STARTCHAR 202  
ENCODING 202
SWIDTH    8000    0 
DWIDTH    8    0 
BBX  8  12  0   -3
BITMAP
18
24
00
7E
40
40
78
40
40
7E
00
00
ENDCHAR
STARTCHAR 203  
ENCODING 203
SWIDTH    8000    0 
DWIDTH    8    0 
BBX  8  12  0   -3
BITMAP
00
24
00
7E
40
40
78
40
40
7E
00
00
ENDCHAR
STARTCHAR 204  
ENCODING 204
SWIDTH    8000    0 
DWIDTH    8    0 
BBX  8  12  0   -3
BITMAP
20
10
00
38
10
10
10
10
10
38
00
00
ENDCHAR
STARTCHAR 205  
ENCODING 205
SWIDTH    8000    0 
DWIDTH    8    0 
BBX  8  12  0   -3
BITMAP
08
10
00
38
10
10
10
10
10
38
00
00
ENDCHAR
STARTCHAR 206  
ENCODING 206
SWIDTH    8000    0 
DWIDTH    8    0 
BBX  8  12  0   -3
BITMAP
10
28
00
38
10
10
10
10
10
38
00
00
ENDCHAR
STARTCHAR 207  
ENCODING 207
SWIDTH    8000    0 
DWIDTH    8    0 
BBX  8  12  0   -3
BITMAP
00
28
00
38
10
10
10
10
10
38
00
00
ENDCHAR
STARTCHAR 208  
ENCODING 208
SWIDTH    8000    0 
DWIDTH    8    0 
BBX  8  12  0   -3
BITMAP
00
78
44
42
42
F2
42
42
44
78
00
00
ENDCHAR
STARTCHAR 209  
ENCODING 209
SWIDTH    8000    0 
DWIDTH    8    0 
BBX  8  12  0   -3
BITMAP
14
28
00
42
62
52
4A
46
42
42
00
00
ENDCHAR
STARTCHAR 210  
ENCODING 210
SWIDTH    8000    0 
DWIDTH    8    0 
BBX  8  12  0   -3
BITMAP
10
08
00
18
24
42
42
42
24
18
00
00
ENDCHAR
STARTCHAR 211  
ENCODING 211
SWIDTH    8000    0 
DWIDTH    8    0 
BBX  8  12  0   -3
BITMAP
08
10
00
18
24
42
42
42
24
18
00
00
ENDCHAR
STARTCHAR 212  
ENCODING 212
SWIDTH    8000    0 
DWIDTH    8    0 
BBX  8  12  0   -3
BITMAP
18
24
00
18
24
42
42
42
24
18
00
00
ENDCHAR
STARTCHAR 213  
ENCODING 213
SWIDTH    8000    0 
DWIDTH    8    0 
BBX  8  12  0   -3
BITMAP
14
28
00
18
24
42
42
42
24
18
00
00
ENDCHAR
STARTCHAR 214  
ENCODING 214
SWIDTH    8000    0 
DWIDTH    8    0 
BBX  8  12  0   -3
BITMAP
00
24
00
18
24
42
42
42
24
18
00
00
ENDCHAR
STARTCHAR 215  
ENCODING 215
SWIDTH    8000    0 
DWIDTH    8    0 
BBX  8  12  0   -3
BITMAP
00
00
00
00
00
00
00
00
00
00
00
00
ENDCHAR
STARTCHAR 216  
ENCODING 216
SWIDTH    8000    0 
DWIDTH    8    0 
BBX  8  12  0   -3
BITMAP
00
1A
24
46
4A
5A
52
62
24
58
00
00
ENDCHAR
STARTCHAR 217  
ENCODING 217
SWIDTH    8000    0 
DWIDTH    8    0 
BBX  8  12  0   -3
BITMAP
10
08
00
42
42
42
42
42
42
3C
00
00
ENDCHAR
STARTCHAR 218  
ENCODING 218
SWIDTH    8000    0 
DWIDTH    8    0 
BBX  8  12  0   -3
BITMAP
08
10
00
42
42
42
42
42
42
3C
00
00
ENDCHAR
STARTCHAR 219  
ENCODING 219
SWIDTH    8000    0 
DWIDTH    8    0 
BBX  8  12  0   -3
BITMAP
18
24
00
42
42
42
42
42
42
3C
00
00
ENDCHAR
STARTCHAR 220  
ENCODING 220
SWIDTH    8000    0 
DWIDTH    8    0 
BBX  8  12  0   -3
BITMAP
00
24
00
42
42
42
42
42
42
3C
00
00
ENDCHAR
STARTCHAR 221  
ENCODING 221
SWIDTH    8000    0 
DWIDTH    8    0 
BBX  8  12  0   -3
BITMAP
08
10
00
82
44
28
10
10
10
10
00
00
ENDCHAR
STARTCHAR 222  
ENCODING 222
SWIDTH    8000    0 
DWIDTH    8    0 
BBX  8  12  0   -3
BITMAP
00
40
40
78
44
44
44
78
40
40
40
00
ENDCHAR
STARTCHAR 223  
ENCODING 223
SWIDTH    8000    0 
DWIDTH    8    0 
BBX  8  12  0   -3
BITMAP
00
38
44
44
58
50
48
44
58
00
00
00
ENDCHAR
STARTCHAR 224  
ENCODING 224
SWIDTH    8000    0 
DWIDTH    8    0 
BBX  8  12  0   -3
BITMAP
00
10
08
00
3C
02
3E
42
46
3A
00
00
ENDCHAR
STARTCHAR 225  
ENCODING 225
SWIDTH    8000    0 
DWIDTH    8    0 
BBX  8  12  0   -3
BITMAP
00
08
10
00
3C
02
3E
42
46
3A
00
00
ENDCHAR
STARTCHAR 226  
ENCODING 226
SWIDTH    8000    0 
DWIDTH    8    0 
BBX  8  12  0   -3
BITMAP
00
08
14
00
3C
02
3E
42
46
3A
00
00
ENDCHAR
STARTCHAR 227  
ENCODING 227
SWIDTH    8000    0 
DWIDTH    8    0 
BBX  8  12  0   -3
BITMAP
00
14
28
00
3C
02
3E
42
46
3A
00
00
ENDCHAR
STARTCHAR 228  
ENCODING 228
SWIDTH    8000    0 
DWIDTH    8    0 
BBX  8  12  0   -3
BITMAP
00
00
24
00
3C
02
3E
42
46
3A
00
00
ENDCHAR
STARTCHAR 229  
ENCODING 229
SWIDTH    8000    0 
DWIDTH    8    0 
BBX  8  12  0   -3
BITMAP
10
28
10
00
3C
02
3E
42
46
3A
00
00
ENDCHAR
STARTCHAR 230  
ENCODING 230
SWIDTH    8000    0 
DWIDTH    8    0 
BBX  8  12  0   -3
BITMAP
00
00
00
00
FE
09
7F
98
98
6E
00
00
ENDCHAR
STARTCHAR 231  
ENCODING 231
SWIDTH    8000    0 
DWIDTH    8    0 
BBX  8  12  0   -3
BITMAP
00
00
00
00
3C
42
40
40
42
3C
08
10
ENDCHAR
STARTCHAR 232  
ENCODING 232
SWIDTH    8000    0 
DWIDTH    8    0 
BBX  8  12  0   -3
BITMAP
00
10
08
00
3C
42
7E
40
40
3C
00
00
ENDCHAR
STARTCHAR 233  
ENCODING 233
SWIDTH    8000    0 
DWIDTH    8    0 
BBX  8  12  0   -3
BITMAP
00
08
10
00
3C
42
7E
40
40
3C
00
00
ENDCHAR
STARTCHAR 234  
ENCODING 234
SWIDTH    8000    0 
DWIDTH    8    0 
BBX  8  12  0   -3
BITMAP
00
10
28
00
3C
42
7E
40
40
3C
00
00
ENDCHAR
STARTCHAR 235  
ENCODING 235
SWIDTH    8000    0 
DWIDTH    8    0 
BBX  8  12  0   -3
BITMAP
00
00
24
00
3C
42
7E
40
40
3C
00
00
ENDCHAR
STARTCHAR 236  
ENCODING 236
SWIDTH    8000    0 
DWIDTH    8    0 
BBX  8  12  0   -3
BITMAP
00
20
10
00
30
10
10
10
10
38
00
00
ENDCHAR
STARTCHAR 237  
ENCODING 237
SWIDTH    8000    0 
DWIDTH    8    0 
BBX  8  12  0   -3
BITMAP
00
08
10
00
30
10
10
10
10
38
00
00
ENDCHAR
STARTCHAR 238  
ENCODING 238
SWIDTH    8000    0 
DWIDTH    8    0 
BBX  8  12  0   -3
BITMAP
00
10
28
00
30
10
10
10
10
38
00
00
ENDCHAR
STARTCHAR 239  
ENCODING 239
SWIDTH    8000    0 
DWIDTH    8    0 
BBX  8  12  0   -3
BITMAP
00
00
28
00
30
10
10
10
10
38
00
00
ENDCHAR
STARTCHAR 240  
ENCODING 240
SWIDTH    8000    0 
DWIDTH    8    0 
BBX  8  12  0   -3
BITMAP
28
10
28
04
3C
42
42
42
42
3C
00
00
ENDCHAR
STARTCHAR 241  
ENCODING 241
SWIDTH    8000    0 
DWIDTH    8    0 
BBX  8  12  0   -3
BITMAP
00
14
28
00
5C
62
42
42
42
42
00
00
ENDCHAR
STARTCHAR 242  
ENCODING 242
SWIDTH    8000    0 
DWIDTH    8    0 
BBX  8  12  0   -3
BITMAP
00
20
10
00
3C
42
42
42
42
3C
00
00
ENDCHAR
STARTCHAR 243  
ENCODING 243
SWIDTH    8000    0 
DWIDTH    8    0 
BBX  8  12  0   -3
BITMAP
00
08
10
00
3C
42
42
42
42
3C
00
00
ENDCHAR
STARTCHAR 244  
ENCODING 244
SWIDTH    8000    0 
DWIDTH    8    0 
BBX  8  12  0   -3
BITMAP
00
18
24
00
3C
42
42
42
42
3C
00
00
ENDCHAR
STARTCHAR 245  
ENCODING 245
SWIDTH    8000    0 
DWIDTH    8    0 
BBX  8  12  0   -3
BITMAP
00
14
28
00
3C
42
42
42
42
3C
00
00
ENDCHAR
STARTCHAR 246  
ENCODING 246
SWIDTH    8000    0 
DWIDTH    8    0 
BBX  8  12  0   -3
BITMAP
00
00
24
00
3C
42
42
42
42
3C
00
00
ENDCHAR
STARTCHAR 247  
ENCODING 247
SWIDTH    8000    0 
DWIDTH    8    0 
BBX  8  12  0   -3
BITMAP
00
00
00
00
00
00
00
00
00
00
00
00
ENDCHAR
STARTCHAR 248  
ENCODING 248
SWIDTH    8000    0 
DWIDTH    8    0 
BBX  8  12  0   -3
BITMAP
00
00
00
02
3C
46
4A
52
62
3C
40
00
ENDCHAR
STARTCHAR 249  
ENCODING 249
SWIDTH    8000    0 
DWIDTH    8    0 
BBX  8  12  0   -3
BITMAP
00
20
10
00
44
44
44
44
44
3A
00
00
ENDCHAR
STARTCHAR 250  
ENCODING 250
SWIDTH    8000    0 
DWIDTH    8    0 
BBX  8  12  0   -3
BITMAP
00
08
10
00
44
44
44
44
44
3A
00
00
ENDCHAR
STARTCHAR 251  
ENCODING 251
SWIDTH    8000    0 
DWIDTH    8    0 
BBX  8  12  0   -3
BITMAP
00
10
28
00
44
44
44
44
44
3A
00
00
ENDCHAR
STARTCHAR 252  
ENCODING 252
SWIDTH    8000    0 
DWIDTH    8    0 
BBX  8  12  0   -3
BITMAP
00
00
28
00
44
44
44
44
44
3A
00
00
ENDCHAR
STARTCHAR 253  
ENCODING 253
SWIDTH    8000    0 
DWIDTH    8    0 
BBX  8  12  0   -3
BITMAP
00
08
10
00
42
42
42
46
3A
02
42
3C
ENDCHAR
STARTCHAR 254  
ENCODING 254
SWIDTH    8000    0 
DWIDTH    8    0 
BBX  8  12  0   -3
BITMAP
00
00
00
40
40
78
44
44
78
40
40
00
ENDCHAR
STARTCHAR 255  
ENCODING 255
SWIDTH    8000    0 
DWIDTH    8    0 
BBX  8  12  0   -3
BITMAP
00
00
24
00
42
42
42
46
3A
02
42
3C
ENDCHAR
ENDFONT
